<svg xmlns="http://www.w3.org/2000/svg" xmlns:xlink="http://www.w3.org/1999/xlink" viewBox="0 0 730.9 150.83"><defs><style>.cls-1{fill:url(#Sfumatura_senza_nome_15);}.cls-2{font-size:107.66px;fill:#fff;font-family:MontserratAlternates-Light, MontserratAlternates Light;font-weight:300;}.cls-3{letter-spacing:-0.02em;}.cls-4{letter-spacing:0em;}</style><linearGradient id="Sfumatura_senza_nome_15" x1="24.92" y1="168.4" x2="706" y2="-17.8" gradientUnits="userSpaceOnUse"><stop offset="0" stop-color="red"/><stop offset="1" stop-color="#ff6700"/></linearGradient></defs><g id="Layer_2" data-name="Layer 2"><g id="Livello_1" data-name="Livello 1"><path class="cls-1" d="M730.9,75.28c0,6.6-4.38,12.3-10.69,14.89l-6.72,1.51h-.06L458.9,148.58c-37.65,8.36-75.66-7.21-93.93-35.92-18.26,28.71-56.3,44.28-94,35.92L15.69,91.52s-.06,0-.08,0l-3.44-.77-.09,0C5,88.4,0,82.36,0,75.28c0-6.51,4.23-12.13,10.38-14.77l7.35-1.64L271,2.25c37.65-8.36,75.69,7.21,94,35.92C383.24,9.46,421.25-6.11,458.9,2.25l253.28,56.6,9.26,2.09C727.07,63.73,730.9,69.1,730.9,75.28Z"/><text class="cls-2" transform="translate(161.82 109.77) scale(1.08 1)"><tspan class="cls-3">P</tspan><tspan x="55.55" y="0">ick</tspan></text><text class="cls-2" transform="translate(355.27 109.77) scale(1.08 1)"><tspan xml:space="preserve"> E</tspan><tspan class="cls-4" x="75.79" y="0">a</tspan><tspan x="127.25" y="0">t</tspan></text></g></g></svg>