<svg width="903" height="749" viewBox="0 0 903 749" fill="none" xmlns="http://www.w3.org/2000/svg">
<g clip-path="url(#clip0)">
<path d="M644.79 169.56H638.38C637.115 169.56 636.09 170.585 636.09 171.85V257.87C636.09 259.135 637.115 260.16 638.38 260.16H644.79C646.055 260.16 647.08 259.135 647.08 257.87V171.85C647.08 170.585 646.055 169.56 644.79 169.56Z" fill="#3F3D56"/>
<path d="M603.04 0H313.24C291.706 0 274.25 17.4564 274.25 38.99V708.47C274.25 730.004 291.706 747.46 313.24 747.46H603.04C624.574 747.46 642.03 730.004 642.03 708.47V38.99C642.03 17.4564 624.574 0 603.04 0Z" fill="#3F3D56"/>
<path d="M590.84 19.47H548.65V24.54C548.65 30.9098 546.123 37.0194 541.624 41.5283C537.124 46.0371 531.02 48.5768 524.65 48.59H390.42C387.263 48.5979 384.136 47.9829 381.217 46.7804C378.298 45.5778 375.646 43.8112 373.411 41.5818C371.176 39.3524 369.402 36.704 368.193 33.7883C366.983 30.8726 366.36 27.7468 366.36 24.59V19.47H326.86C319.113 19.47 311.683 22.5475 306.205 28.0254C300.727 33.5034 297.65 40.933 297.65 48.68V698.83C297.661 706.57 300.743 713.989 306.22 719.459C311.696 724.928 319.12 728 326.86 728H590.86C594.696 728 598.494 727.245 602.038 725.777C605.582 724.309 608.802 722.157 611.515 719.445C614.227 716.732 616.379 713.512 617.846 709.968C619.314 706.424 620.07 702.626 620.07 698.79V48.73C620.081 40.9838 617.015 33.5504 611.547 28.0637C606.079 22.5769 598.656 19.4859 590.91 19.47H590.84Z" fill="white"/>
<path d="M470.15 22.32H426.53C424.393 22.32 422.66 24.0527 422.66 26.19V28.87C422.66 31.0074 424.393 32.74 426.53 32.74H470.15C472.287 32.74 474.02 31.0074 474.02 28.87V26.19C474.02 24.0527 472.287 22.32 470.15 22.32Z" fill="#E6E8EC"/>
<path d="M487.71 33.45C490.98 33.45 493.63 30.7995 493.63 27.53C493.63 24.2605 490.98 21.61 487.71 21.61C484.44 21.61 481.79 24.2605 481.79 27.53C481.79 30.7995 484.44 33.45 487.71 33.45Z" fill="#E6E8EC"/>
<path d="M285.76 147.36H284.8C283.535 147.36 282.51 148.385 282.51 149.65V171.88C282.51 173.145 283.535 174.17 284.8 174.17H285.76C287.025 174.17 288.05 173.145 288.05 171.88V149.65C288.05 148.385 287.025 147.36 285.76 147.36Z" fill="#3F3D56"/>
<path d="M286.27 196.45H284.6C283.335 196.45 282.31 197.475 282.31 198.74V240.83C282.31 242.095 283.335 243.12 284.6 243.12H286.27C287.535 243.12 288.56 242.095 288.56 240.83V198.74C288.56 197.475 287.535 196.45 286.27 196.45Z" fill="#3F3D56"/>
<path d="M286.07 259.45H284.7C283.435 259.45 282.41 260.475 282.41 261.74V304.23C282.41 305.495 283.435 306.52 284.7 306.52H286.07C287.335 306.52 288.36 305.495 288.36 304.23V261.74C288.36 260.475 287.335 259.45 286.07 259.45Z" fill="#3F3D56"/>
<path d="M208.74 383.91C208.896 384.069 209.101 384.171 209.322 384.2C209.544 384.229 209.768 384.183 209.96 384.07C209.548 384.072 209.138 384.018 208.74 383.91V383.91Z" fill="url(#paint0_linear)"/>
<path d="M254.7 401.89L253.5 408.43L252.58 413.43L250.89 422.57L234.57 434C234.57 434 233.09 432.74 230.67 430.76C224 425.25 209.91 414 199.58 408C196.923 406.312 194.05 404.99 191.04 404.07L254.7 401.89Z" fill="#FEB9B9"/>
<path d="M242.73 406.75C242.73 406.75 261.73 410.02 262.88 401.89C264.03 393.76 253.08 389.36 243.88 388.82C234.68 388.28 179.11 392.09 179.11 392.09C179.11 392.09 169.32 405.15 204.69 407.33L242.73 406.75Z" fill="#3F3D56"/>
<path d="M284.36 138.44H184.76V256.54H284.36V138.44Z" fill="#2F2E41"/>
<path opacity="0.1" d="M284.36 138.98H184.76V257.08H284.36V138.98Z" fill="black"/>
<path d="M68 340.62C66.36 341.04 64.26 342.62 61.93 344.92C51.93 354.85 37.52 378.18 37.52 378.18C19.14 356.28 39.52 338.98 48.15 333.04C50.26 331.6 51.67 330.81 51.67 330.81L68 340.62Z" fill="#FEB9B9"/>
<path d="M253.61 175.72C253.61 175.72 258.51 210.01 275.38 218.17C292.25 226.33 253.61 241.59 253.61 241.59L200.82 222C200.82 222 230.76 212.2 224.82 183.36L253.61 175.72Z" fill="#FEB9B9"/>
<path d="M197 382L195.8 388.52L194.8 393.52L193.12 402.67L176.79 414.09C176.79 414.09 175.32 412.84 172.89 410.86C166.2 405.35 152.14 394.13 141.79 388.1C139.136 386.406 136.263 385.084 133.25 384.17L197 382Z" fill="#FEB9B9"/>
<path d="M182.88 390C182.88 390 199.97 390.12 201 382C202.03 373.88 191.69 369.48 182.88 368.93C174.07 368.38 120.59 372.45 120.59 372.45C120.59 372.45 113 387.84 146.65 390H182.88Z" fill="#2F2E41"/>
<path d="M302.69 518.12L300.46 517L298.46 514.47L272.12 481.08V481.66C271.95 487.24 270.05 531.43 255.26 535.51C239.48 539.86 220.44 540.95 211.76 511.56C203.08 482.17 187.21 418 170.93 414.14L195.15 394.27C195.15 394.27 211.15 413.03 217.73 430.99C217.48 429.88 206.41 378.12 215.5 368.99H295C295 368.99 307.27 403.93 315.68 421.24C322.23 434.68 332.05 466.46 338.38 487.96C344.61 509.17 322.61 527.92 302.69 518.12Z" fill="#3F3D56"/>
<path opacity="0.1" d="M300.42 378.72C288.15 385.98 234.29 383.03 216.77 381.85L212 381.5C211.48 381.5 212.08 381.21 212.08 381.21L212.57 376.27L225.63 343.08L295.56 302.52C294.14 306.79 293.67 313.33 293.79 320.81C294.11 344.86 300.42 378.72 300.42 378.72Z" fill="black"/>
<path d="M300.42 377.08C288.15 384.34 234.29 381.39 216.77 380.21L212 379.87L211.21 379.81L212.08 379.58L216.38 378.47L225.63 341.47L295.56 300.93C294.14 305.2 293.67 311.74 293.79 319.22C294.11 343.23 300.42 377.08 300.42 377.08Z" fill="#EFEFEF"/>
<path opacity="0.1" d="M293.74 319.19C279.52 322.47 248.22 332.09 236.2 355.32C228.2 370.79 221.43 377.43 216.73 380.21L211.95 379.87C211.983 379.775 212.009 379.678 212.03 379.58L216.33 378.47L225.58 341.47L295.51 300.93C294.11 305.17 293.63 311.7 293.74 319.19Z" fill="black"/>
<path opacity="0.1" d="M51.7 330.83L68 340.62C66.36 341.04 64.26 342.62 61.93 344.92C60.57 340.92 52.03 335.4 48.15 333.04C50.28 331.62 51.7 330.83 51.7 330.83Z" fill="black"/>
<path opacity="0.1" d="M209 380.51C208.82 380.597 208.618 380.629 208.42 380.6C208.223 380.572 208.038 380.485 207.89 380.35C208.25 380.458 208.624 380.512 209 380.51V380.51Z" fill="black"/>
<path d="M246 216C246 216 231.3 217.63 221 206.75C221 206.75 177.5 219.27 162.76 247.57C148.02 275.87 47.84 331.38 47.84 331.38C47.84 331.38 65.26 341.17 63.62 346.07L129.49 308C129.49 308 152.91 291.13 159.41 287.32C165.91 283.51 201.87 260.1 209.49 323.78C217.11 387.46 209.49 379.84 209.49 379.84C209.49 379.84 220.37 383.65 236.16 353.17C251.95 322.69 300.91 315.61 300.91 315.61L303.63 283.51C303.63 283.51 313.35 262.23 305.87 253.4C303.602 250.785 302.091 247.601 301.5 244.19C300.27 236.03 301.5 222.45 318.84 211.19C345.5 193.77 355.84 179.63 355.84 179.63C355.84 179.63 356.39 169.28 340.06 164.38C323.73 159.48 257.34 132.82 257.34 132.82L255.11 142L307.49 179C307.49 179 281.37 200.19 260.65 199.68C260.65 199.67 264.5 215.45 246 216Z" fill="#FF0000"/>
<path opacity="0.1" d="M256.08 190.64C254.791 186.28 253.789 181.841 253.08 177.35L224.22 185C225.494 190.506 225.266 196.252 223.56 201.64C229.461 203.214 235.696 203.01 241.482 201.053C247.267 199.096 252.346 195.473 256.08 190.64V190.64Z" fill="black"/>
<path d="M232.12 201.03C249.252 201.03 263.14 187.142 263.14 170.01C263.14 152.878 249.252 138.99 232.12 138.99C214.988 138.99 201.1 152.878 201.1 170.01C201.1 187.142 214.988 201.03 232.12 201.03Z" fill="#FEB9B9"/>
<path opacity="0.1" d="M265.86 419.81C265.86 419.81 283.86 455.19 278.37 466.07Z" fill="black"/>
<path d="M248.61 98.37C257.22 99.37 265.4 103.04 273.88 105.06C275.996 105.722 278.25 105.808 280.41 105.31C283.7 104.31 286.41 100.85 289.79 100.95C291.89 101.01 293.79 102.44 295.48 103.81C298.253 105.946 300.864 108.286 303.29 110.81C309.13 117.16 312.76 125.7 318.09 132.61C323.42 139.52 331.02 147.61 338.6 144.44C333.44 164.52 317.37 177.08 299.12 178.33C291.83 178.83 284.37 177.33 277.32 179.44C275.564 180.16 273.71 180.612 271.82 180.78C267.76 180.78 264.49 177.05 261.96 173.43C256.03 164.91 251.33 155.24 244.65 147.43C242.42 144.86 239.85 142.43 236.72 141.95C233.59 141.47 230.72 142.95 227.96 144.41C223.37 146.79 218.69 149.24 215.13 153.33C211.57 157.42 209.33 163.47 210.8 168.95C211.6 171.95 213.4 174.59 213.44 177.69C213.5 182.69 209.13 186.26 208.27 191.08C208.08 193.104 208.01 195.138 208.06 197.17C207.68 203.77 203.36 209.17 198.86 213.33C197.1 214.93 195.16 216.67 194.64 219.16C194.3 220.87 194.64 222.66 194.42 224.39C193.76 228.68 189.49 230.85 185.71 231.39C181.293 232.043 176.782 231.508 172.64 229.84C177.92 227.34 181.18 220.22 179.95 213.84C178.27 205 169.39 198.66 170.15 189.67C170.567 186.896 171.396 184.199 172.61 181.67C174.544 176.815 175.949 171.766 176.8 166.61C177.47 162.61 177.8 158.4 176.55 154.61C175.43 151.16 173.1 148.4 171.12 145.48C168.445 141.504 166.335 137.176 164.85 132.62C164.309 131.269 164.103 129.808 164.25 128.36C164.705 126.662 165.664 125.142 167 124C171.85 118.9 177 113.61 183.54 112.15C186.642 111.631 189.797 111.51 192.93 111.79C198.38 111.96 203.834 111.73 209.25 111.1C213.71 110.57 221.25 110.64 225.03 107.75C228.55 105.05 230.54 101.66 234.88 99.94C239.274 98.3189 243.994 97.7803 248.64 98.37H248.61Z" fill="#2F2E41"/>
<path d="M824.96 745.6C849.807 745.6 869.95 742.193 869.95 737.99C869.95 733.787 849.807 730.38 824.96 730.38C800.113 730.38 779.97 733.787 779.97 737.99C779.97 742.193 800.113 745.6 824.96 745.6Z" fill="#FF0000"/>
<path d="M843.57 725.55C845.621 723.872 847.116 721.613 847.86 719.07C848.42 716.51 847.32 713.47 844.86 712.48C842.1 711.42 839.16 713.34 836.93 715.26C834.7 717.18 832.15 719.39 829.22 718.98C830.729 717.62 831.858 715.89 832.496 713.962C833.134 712.033 833.259 709.972 832.86 707.98C832.732 707.158 832.387 706.384 831.86 705.74C830.34 704.11 827.56 704.8 825.74 706.1C819.92 710.18 818.3 718.1 818.26 725.2C817.67 722.64 818.17 719.96 818.15 717.37C818.13 714.78 817.42 711.77 815.2 710.37C813.824 709.634 812.28 709.269 810.72 709.31C808.1 709.21 805.19 709.48 803.4 711.39C801.16 713.77 801.77 717.75 803.69 720.39C805.61 723.03 808.56 724.65 811.27 726.45C813.433 727.744 815.279 729.508 816.67 731.61C816.832 731.907 816.966 732.218 817.07 732.54H833.42C837.104 730.67 840.521 728.316 843.58 725.54L843.57 725.55Z" fill="#FF0000"/>
<path d="M213.21 748.95C229.607 748.95 242.9 746.702 242.9 743.93C242.9 741.158 229.607 738.91 213.21 738.91C196.813 738.91 183.52 741.158 183.52 743.93C183.52 746.702 196.813 748.95 213.21 748.95Z" fill="#EFEFEF"/>
<path d="M225.49 735.72C226.845 734.617 227.832 733.128 228.32 731.45C228.534 730.606 228.453 729.713 228.089 728.922C227.725 728.13 227.1 727.487 226.32 727.1C224.5 726.4 222.56 727.66 221.09 728.94C219.62 730.22 217.93 731.66 216.01 731.39C216.999 730.489 217.739 729.349 218.159 728.079C218.58 726.809 218.666 725.453 218.41 724.14C218.322 723.597 218.087 723.088 217.73 722.67C216.73 721.59 214.9 722.05 213.73 722.9C209.89 725.6 208.82 730.82 208.8 735.51C208.41 733.82 208.74 732.05 208.73 730.34C208.72 728.63 208.25 726.65 206.73 725.74C205.811 725.243 204.774 725.004 203.73 725.05C202.01 724.98 200.09 725.16 198.9 726.42C197.43 727.99 197.83 730.61 199.1 732.33C200.37 734.05 202.31 735.14 204.1 736.33C205.528 737.18 206.745 738.342 207.66 739.73C207.77 739.924 207.861 740.128 207.93 740.34H218.72C221.151 739.109 223.405 737.554 225.42 735.72H225.49Z" fill="#EFEFEF"/>
<path d="M45.28 748.95C61.6773 748.95 74.97 746.702 74.97 743.93C74.97 741.158 61.6773 738.91 45.28 738.91C28.8827 738.91 15.59 741.158 15.59 743.93C15.59 746.702 28.8827 748.95 45.28 748.95Z" fill="#EFEFEF"/>
<path d="M57.56 735.72C58.9119 734.614 59.8983 733.126 60.39 731.45C60.6042 730.606 60.5225 729.713 60.1586 728.922C59.7947 728.13 59.1705 727.487 58.39 727.1C56.57 726.4 54.63 727.66 53.16 728.94C51.69 730.22 50 731.66 48.07 731.39C49.0628 730.492 49.8058 729.352 50.2264 728.082C50.6471 726.811 50.731 725.453 50.47 724.14C50.3899 723.597 50.1576 723.087 49.8 722.67C48.8 721.59 46.97 722.05 45.8 722.9C41.96 725.6 40.89 730.82 40.87 735.51C40.48 733.82 40.81 732.05 40.8 730.34C40.79 728.63 40.32 726.65 38.8 725.74C37.8809 725.243 36.844 725.004 35.8 725.05C34.07 724.98 32.15 725.16 30.97 726.42C29.5 727.99 29.89 730.61 31.16 732.33C32.43 734.05 34.38 735.14 36.16 736.33C37.5919 737.179 38.8126 738.341 39.73 739.73C39.8402 739.924 39.9306 740.128 40 740.34H50.86C53.2896 739.106 55.5429 737.552 57.56 735.72V735.72Z" fill="#EFEFEF"/>
<path d="M902.57 746.09H0V747.91H902.57V746.09Z" fill="#2F2E41"/>
<path d="M858.51 50.52C858.51 50.52 764.29 44.84 775.39 110.86C775.39 110.86 773.15 122.53 783.76 127.86C783.76 127.86 783.93 122.97 793.43 124.63C796.812 125.193 800.249 125.357 803.67 125.12C808.285 124.817 812.676 123.02 816.18 120V120C816.18 120 842.66 109 853 65.75C853 65.75 860.62 56.31 860.32 53.88L844.42 60.67C844.42 60.67 849.86 72.14 845.54 81.67C845.54 81.67 845.02 61.08 841.97 61.53C841.35 61.62 833.71 65.53 833.71 65.53C833.71 65.53 843 85.48 836 100C836 100 838.68 75.38 830.79 67L819.6 73.53C819.6 73.53 830.52 94.17 823.11 111.01C823.11 111.01 825.01 85.18 817.24 75.12L807.06 83C807.06 83 817.32 103.33 811.06 117.3C811.06 117.3 810.25 87.24 804.86 84.97C804.86 84.97 795.99 92.81 794.64 95.97C794.64 95.97 801.64 110.74 797.3 118.53C797.3 118.53 794.62 98.53 792.43 98.38C792.43 98.38 783.59 111.65 782.67 120.76C782.67 120.76 783.05 107.23 790.29 97.13C790.29 97.13 781.74 98.6 776.75 104.13C776.75 104.13 778.13 94.75 792.47 93.93C792.47 93.93 799.78 83.85 801.73 83.25C801.73 83.25 787.47 82.05 778.82 85.89C778.82 85.89 786.43 77.04 804.35 81.07L814.35 72.89C814.35 72.89 795.58 70.33 787.61 73.16C787.61 73.16 796.77 65.32 817.05 71.03L828 64.54C828 64.54 812 61.09 802.45 62.3C802.45 62.3 812.52 56.87 831.2 62.76L839.03 59.26C839.03 59.26 827.27 57 823.83 56.59C820.39 56.18 820.22 55.28 820.22 55.28C827.639 54.0469 835.254 54.895 842.22 57.73C842.22 57.73 858.79 51.56 858.51 50.52Z" fill="#FF0000"/>
<path d="M729.41 15.57C729.41 15.57 686.89 13 691.86 42.84C691.86 42.84 690.86 48.11 695.64 50.51C695.64 50.51 695.72 48.27 700.02 49.04C701.546 49.2984 703.097 49.3722 704.64 49.26C706.727 49.126 708.711 48.311 710.29 46.94V46.94C710.29 46.94 722.29 41.99 726.92 22.43C726.92 22.43 730.35 18.17 730.22 17.07L723 20.14C723 20.14 725.45 25.32 723.53 29.62C723.53 29.62 723.29 20.32 721.92 20.54C721.64 20.54 718.18 22.34 718.18 22.34C718.18 22.34 722.41 31.34 719.18 37.93C719.18 37.93 720.39 26.8 716.82 22.99L711.76 25.99C711.76 25.99 716.7 35.31 713.35 42.92C713.35 42.92 714.21 31.25 710.7 26.7L706.12 30.29C706.12 30.29 710.75 39.47 707.93 45.79C707.93 45.79 707.55 32.2 705.12 31.17C705.12 31.17 701.12 34.71 700.5 36.17C700.5 36.17 703.68 42.89 701.71 46.37C701.71 46.37 700.5 37.31 699.47 37.27C699.47 37.27 695.47 43.27 695.06 47.34C695.26 43.5403 696.45 39.8589 698.51 36.66C696.206 37.1005 694.079 38.2019 692.39 39.83C692.39 39.83 693.02 35.59 699.5 35.22C699.5 35.22 702.85 30.67 703.68 30.39C703.68 30.39 697.24 29.85 693.33 31.59C693.33 31.59 696.77 27.59 704.86 29.4L709.33 25.71C709.33 25.71 700.84 24.58 697.24 25.83C697.24 25.83 701.38 22.29 710.55 24.83L715.47 21.89C715.47 21.89 708.23 20.34 703.92 20.89C703.92 20.89 708.48 18.44 716.92 21.09L720.44 19.51C720.44 19.51 715.14 18.51 713.58 18.3C712.02 18.09 711.95 17.71 711.95 17.71C715.323 17.1437 718.786 17.5316 721.95 18.83C721.95 18.83 729.54 16 729.41 15.57Z" fill="#3F3D56"/>
<path d="M73.67 471C73.67 471 31.15 468.43 36.12 498.27C36.12 498.27 35.12 503.54 39.9 505.93C39.9 505.93 39.98 503.69 44.27 504.47C45.7995 504.723 47.3534 504.797 48.9 504.69C50.9875 504.552 52.9723 503.734 54.55 502.36V502.36C54.55 502.36 66.55 497.42 71.17 477.86C71.17 477.86 74.61 473.59 74.47 472.5L67.29 475.56C67.29 475.56 69.74 480.74 67.82 485.05C67.82 485.05 67.58 475.75 66.21 475.97C65.93 475.97 62.47 477.77 62.47 477.77C62.47 477.77 66.7 486.77 63.47 493.35C63.47 493.35 64.68 482.23 61.11 478.41L56.05 481.41C56.05 481.41 60.98 490.74 57.64 498.35C57.64 498.35 58.5 486.67 54.99 482.13L50.41 485.71C50.41 485.71 55.04 494.9 52.22 501.21C52.22 501.21 51.84 487.63 49.41 486.6C49.41 486.6 45.41 490.13 44.79 491.6C44.79 491.6 47.97 498.31 46 501.79C46 501.79 44.79 492.74 43.76 492.69C43.76 492.69 39.76 498.69 39.35 502.76C39.5522 498.964 40.7414 495.286 42.8 492.09C40.4956 492.53 38.3692 493.632 36.68 495.26C36.68 495.26 37.31 491.02 43.79 490.65C43.79 490.65 47.14 486.09 47.97 485.81C47.97 485.81 41.53 485.28 37.62 487.01C37.62 487.01 41.05 483.01 49.15 484.83L53.62 481.14C53.62 481.14 45.13 480.01 41.53 481.25C41.53 481.25 45.67 477.72 54.84 480.25L59.76 477.31C59.76 477.31 52.52 475.75 48.21 476.31C48.21 476.31 52.77 473.86 61.21 476.51L64.77 475C64.77 475 59.47 474 57.91 473.79C56.35 473.58 56.28 473.2 56.28 473.2C59.6526 472.634 63.1163 473.022 66.28 474.32C66.28 474.32 73.8 471.47 73.67 471Z" fill="#3F3D56"/>
<g clip-path="url(#clip1)">
<path d="M451 474.382C509.542 474.382 557 427.51 557 369.691C557 311.872 509.542 265 451 265C392.458 265 345 311.872 345 369.691C345 427.51 392.458 474.382 451 474.382Z" fill="#212121"/>
<path d="M451.739 456.625C500.898 456.625 540.749 419.028 540.749 372.65C540.749 326.272 500.898 288.676 451.739 288.676C402.58 288.676 362.728 326.272 362.728 372.65C362.728 419.028 402.58 456.625 451.739 456.625Z" fill="white"/>
<path d="M554.784 354.524C554.784 335.882 543.963 318.005 524.702 304.823C505.441 291.642 479.318 284.236 452.079 284.236C424.84 284.236 398.716 291.642 379.455 304.823C360.194 318.005 347.216 335.882 347.216 354.524H452.079H554.784Z" fill="#212121"/>
<path d="M451.369 417.476C477.479 417.476 498.645 398.532 498.645 375.162C498.645 351.793 477.479 332.848 451.369 332.848C425.26 332.848 404.094 351.793 404.094 375.162C404.094 398.532 425.26 417.476 451.369 417.476Z" fill="#212121"/>
<path d="M479.46 380.049C480.198 376.72 476.502 373.322 471.238 370.894C465.974 368.466 458.834 367.101 451.39 367.101C443.945 367.101 436.806 368.466 431.542 370.894C426.277 373.322 423.32 376.615 423.32 380.049H451.39H479.46Z" fill="#FD5523"/>
<path d="M479.46 378.199C479.829 380.789 478.734 383.614 477.323 386.127C475.912 388.64 473.844 390.924 471.238 392.848C468.631 394.772 465.537 396.297 462.132 397.339C458.726 398.38 455.076 398.916 451.39 398.916C447.703 398.916 444.053 398.38 440.648 397.339C437.242 396.297 434.148 394.772 431.542 392.848C428.935 390.924 426.867 388.64 425.457 386.127C424.046 383.614 422.582 380.419 423.69 377.829L451.39 378.199H479.46Z" fill="#FD5523"/>
<path d="M388.513 387.556C402.346 387.556 413.559 376.352 413.559 362.531C413.559 348.71 402.346 337.507 388.513 337.507C374.68 337.507 363.467 348.71 363.467 362.531C363.467 376.352 374.68 387.556 388.513 387.556Z" fill="white"/>
<path d="M388.513 372.32C394.685 372.32 399.688 367.499 399.688 361.553C399.688 355.607 394.685 350.787 388.513 350.787C382.342 350.787 377.339 355.607 377.339 361.553C377.339 367.499 382.342 372.32 388.513 372.32Z" fill="#212121"/>
<path d="M388.513 390.777C395.536 390.777 401.229 385.957 401.229 380.011C401.229 374.064 395.536 369.244 388.513 369.244C381.49 369.244 375.797 374.064 375.797 380.011C375.797 385.957 381.49 390.777 388.513 390.777Z" fill="white"/>
<path d="M514.827 387.556C528.659 387.556 539.873 376.352 539.873 362.531C539.873 348.71 528.659 337.507 514.827 337.507C500.994 337.507 489.781 348.71 489.781 362.531C489.781 376.352 500.994 387.556 514.827 387.556Z" fill="white"/>
<path d="M514.827 372.32C520.998 372.32 526.001 367.499 526.001 361.553C526.001 355.607 520.998 350.787 514.827 350.787C508.655 350.787 503.652 355.607 503.652 361.553C503.652 367.499 508.655 372.32 514.827 372.32Z" fill="#212121"/>
<path d="M514.827 390.777C521.85 390.777 527.543 385.957 527.543 380.011C527.543 374.064 521.85 369.244 514.827 369.244C507.804 369.244 502.111 374.064 502.111 380.011C502.111 385.957 507.804 390.777 514.827 390.777Z" fill="white"/>
<path d="M456.855 449.363H445.318C438.516 449.388 433.014 453.622 432.996 458.847V467.71C433.014 472.941 438.53 477.178 445.341 477.193H456.879C463.68 477.169 469.183 472.935 469.202 467.71V458.847C469.183 453.615 463.666 449.378 456.855 449.363Z" fill="#37966F"/>
<path d="M507.498 447.892C507.458 447.517 507.37 447.146 507.233 446.784C507.066 446.307 506.817 445.847 506.495 445.42C504.459 442.71 499.951 441.781 496.424 443.344C496.423 443.344 496.423 443.345 496.422 443.345L478.884 451.092L471.419 454.416C472.172 455.822 472.563 457.326 472.573 458.847V467.71C472.564 469.231 472.172 470.736 471.419 472.141L478.861 475.438L495.845 482.972C499.197 484.774 503.815 484.146 506.161 481.572C507.033 480.613 507.501 479.471 507.498 478.302V448.211C507.512 448.105 507.512 447.998 507.498 447.892Z" fill="#37966F"/>
<path d="M430.777 454.176L423.704 451.038L406.282 443.327C402.756 441.763 398.247 442.691 396.211 445.4C396.211 445.401 396.21 445.401 396.21 445.401C395.887 445.83 395.639 446.288 395.471 446.766C395.343 447.141 395.266 447.523 395.241 447.909C395.35 447.493 395.675 447.129 396.141 446.899L395.241 447.909C395.226 448.016 395.226 448.122 395.241 448.229V478.292C395.245 481.44 398.571 483.988 402.668 483.984C404.16 483.984 405.616 483.637 406.848 482.989L424.051 475.332L430.766 472.354C429.95 470.886 429.53 469.306 429.531 467.71V458.847C429.528 457.241 429.952 455.651 430.777 454.176Z" fill="#37966F"/>
</g>
</g>
<defs>
<linearGradient id="paint0_linear" x1="209.484" y1="382.021" x2="209.484" y2="381.729" gradientUnits="userSpaceOnUse">
<stop stop-color="#808080" stop-opacity="0.25"/>
<stop offset="0.54" stop-color="#808080" stop-opacity="0.12"/>
<stop offset="1" stop-color="#808080" stop-opacity="0.1"/>
</linearGradient>
<clipPath id="clip0">
<rect width="902.57" height="748.96" fill="white"/>
</clipPath>
<clipPath id="clip1">
<rect width="212" height="219" fill="white" transform="translate(345 265)"/>
</clipPath>
</defs>
</svg>
