<svg width="287" height="296" viewBox="0 0 287 296" fill="none" xmlns="http://www.w3.org/2000/svg">
<ellipse cx="143.5" cy="141.5" rx="143.5" ry="141.5" fill="#212121"/>
<ellipse cx="144.5" cy="145.5" rx="120.5" ry="113.5" fill="white"/>
<path d="M284 121C284 95.8044 269.351 71.6408 243.276 53.8249C217.201 36.0089 181.836 26 144.961 26C108.085 26 72.7197 36.0089 46.6447 53.8248C20.5698 71.6408 3.00001 95.8044 3 121H144.961H284Z" fill="#212121"/>
<ellipse cx="144" cy="148.895" rx="64" ry="57.1916" fill="#212121"/>
<path d="M182.028 155.5C183.028 151 178.024 146.408 170.898 143.126C163.771 139.844 154.106 138 144.028 138C133.949 138 124.284 139.844 117.158 143.126C110.031 146.408 106.028 150.859 106.028 155.5L144.028 155.5H182.028Z" fill="#FD5523"/>
<path d="M182.028 153C182.528 156.5 181.045 160.318 179.135 163.715C177.225 167.112 174.426 170.199 170.898 172.799C167.369 175.399 163.18 177.461 158.57 178.869C153.959 180.276 149.018 181 144.028 181C139.037 181 134.096 180.276 129.486 178.869C124.875 177.461 120.686 175.399 117.158 172.799C113.629 170.199 110.83 167.112 108.92 163.715C107.011 160.318 105.028 156 106.528 152.5L144.028 153H182.028Z" fill="#FD5523"/>
<ellipse cx="58.9069" cy="131.823" rx="33.9069" ry="33.8233" fill="white"/>
<ellipse cx="58.9069" cy="130.501" rx="15.1277" ry="14.5521" fill="#212121"/>
<ellipse cx="58.9069" cy="155.448" rx="17.2143" ry="14.5521" fill="white"/>
<ellipse cx="229.907" cy="131.823" rx="33.9069" ry="33.8233" fill="white"/>
<ellipse cx="229.907" cy="130.501" rx="15.1277" ry="14.5521" fill="#212121"/>
<ellipse cx="229.907" cy="155.448" rx="17.2143" ry="14.5521" fill="white"/>
<path d="M151.427 249.185H135.808C126.6 249.218 119.151 254.941 119.126 262.003V273.982C119.151 281.053 126.619 286.78 135.839 286.8H151.459C160.666 286.767 168.115 281.044 168.141 273.982V262.003C168.115 254.932 160.647 249.205 151.427 249.185Z" fill="#37966F"/>
<path d="M219.986 247.197C219.932 246.69 219.812 246.188 219.627 245.699C219.4 245.054 219.064 244.433 218.627 243.855C215.872 240.193 209.768 238.937 204.994 241.05C204.993 241.05 204.992 241.051 204.991 241.051L181.249 251.521L171.143 256.014C172.162 257.914 172.692 259.948 172.705 262.003V273.982C172.693 276.038 172.162 278.072 171.143 279.972L181.218 284.428L204.21 294.611C208.748 297.046 215 296.198 218.175 292.718C219.356 291.422 219.989 289.879 219.986 288.298V247.628C220.005 247.485 220.005 247.34 219.986 247.197Z" fill="#37966F"/>
<path d="M116.123 255.69L106.548 251.449L82.9625 241.027C78.1887 238.913 72.0845 240.167 69.328 243.828C69.3276 243.829 69.3268 243.829 69.3264 243.83C68.8898 244.409 68.5536 245.029 68.3267 245.675C68.153 246.181 68.0483 246.698 68.0144 247.22C68.1627 246.657 68.602 246.165 69.2327 245.855L68.0144 247.22C67.9952 247.364 67.9952 247.508 68.0144 247.652V288.285C68.0206 292.54 72.5226 295.984 78.0692 295.979C80.0888 295.978 82.0608 295.509 83.7279 294.634L107.017 284.284L116.108 280.259C115.003 278.275 114.434 276.14 114.436 273.982V262.003C114.432 259.832 115.006 257.684 116.123 255.69Z" fill="#37966F"/>
</svg>
