<svg xmlns="http://www.w3.org/2000/svg" xmlns:xlink="http://www.w3.org/1999/xlink" viewBox="0 0 865.8 650.46"><defs><style>.cls-1{fill:#e6e6e6;}.cls-2{fill:#3f3d56;}.cls-3{fill:#fff;}.cls-4{fill:#a0616a;}.cls-5{fill:#2f2e41;}.cls-6{fill:red;}.cls-7{fill:url(#linear-gradient);}.cls-10,.cls-11,.cls-8,.cls-9{isolation:isolate;}.cls-10,.cls-11,.cls-9{font-size:32.2px;fill:#1d1d1b;}.cls-10,.cls-12,.cls-9{font-family:MyriadPro-Regular, Myriad Pro;}.cls-9{letter-spacing:-0.02em;}.cls-11{font-family:ArialHebrew-Light, Arial Hebrew;font-weight:300;}.cls-12{font-weight:400;letter-spacing:0em;}</style><linearGradient id="linear-gradient" x1="570.73" y1="427.12" x2="741" y2="473.67" gradientTransform="matrix(1.2, 0.14, 0.13, -1.19, -188.34, 663.99)" gradientUnits="userSpaceOnUse"><stop offset="0" stop-color="red"/><stop offset="1" stop-color="#ff6700"/></linearGradient></defs><g id="abc6f0fe-ac59-4901-a46a-93a5eed63bf8"><path class="cls-1" d="M406,630.67c0,9.94-91,11-203,18s-203-8.06-203-18,91.52-29.94,203-18C315,624.67,406,620.73,406,630.67Z" transform="translate(0 0)"/><path class="cls-2" d="M834,0H593.43a51.15,51.15,0,0,0-49.9,39.9L422,579.17a41.35,41.35,0,0,0,31.24,49.42,41.92,41.92,0,0,0,7.06,1L707.6,641.74A54.62,54.62,0,0,0,764,596.91l69-381.27,5.13,1.47,13.19-72.27L846,143.52,865.29,37.1A31.48,31.48,0,0,0,834,0Z" transform="translate(0 0)"/><path class="cls-3" d="M625.1,11.63H597a35.34,35.34,0,0,0-34.54,27.81L445.78,574.31a21.9,21.9,0,0,0,16.73,26.07,22.15,22.15,0,0,0,3.24.45L712.3,617a28.37,28.37,0,0,0,29.78-23.28L841.66,40.88A24.83,24.83,0,0,0,817.2,11.63H790.56a11.71,11.71,0,0,0-11.32,8.67h0a10.36,10.36,0,0,1-10,7.66H642.75A17.69,17.69,0,0,1,625.1,11.63Z" transform="translate(0 0)"/><path class="cls-4" d="M361.19,286.74l21.74,43,65,29.55c6.94,11.73,29,12.63,30.6,5.05,1.8-8.52-26.78-22.21-26.78-22.21l-54.37-36.78-4.76-31.65Z" transform="translate(0 0)"/><polygon class="cls-4" points="363.75 575.56 359.74 607.63 383 609.24 385.4 575.56 363.75 575.56"/><path class="cls-5" d="M367,602.82a62.31,62.31,0,0,1-5.74-7c-3.33-4.61-6.29,19.05-6.29,19.05s-3.2,9.62-2.4,14.43,19.24,4.81,22.45,4,19.24,0,19.24,0h24.06c20.84-9.62,0-16,0-16-6.42-.8-28.07-20.84-28.07-20.84l-4.81-8.82c-3.2-.81-6.41,11.22-6.41,11.22Z" transform="translate(0 0)"/><polygon class="cls-4" points="303.62 575.96 299.61 608.03 322.86 609.64 325.27 575.96 303.62 575.96"/><path class="cls-5" d="M306.82,603.22a63.34,63.34,0,0,1-5.73-7c-3.34-4.61-6.29,19-6.29,19s-3.21,8.82-2.41,13.63,19.25,4.81,22.45,4,19.25.8,19.25.8h24.05c20.85-9.62,0-16,0-16-6.41-.8-28.06-20.84-28.06-20.84L325.27,588c-3.21-.8-6.42,11.22-6.42,11.22Z" transform="translate(0 0)"/><path class="cls-5" d="M330.08,369.09c-3.21,4-1.61,17.64-1.61,17.64s-5.61,44.1-3.2,48.11-1.61,7.22-4,12.83-4.81,19.24-4.81,19.24c-13.64,11.23-12.83,62.54-12.83,62.54l-4.81,45.71c1.6,4.81,24.05,5.61,27.26,4.81s12.83-73,12.83-73l21.65-40.89s-1.61,109-1.61,113.86,21.65,2.4,26.46,2.4,4.81-80.18,4.81-80.18L395,481.35l25.66-95.42V374.7l-4-5.61S333.28,365.08,330.08,369.09Z" transform="translate(0 0)"/><circle class="cls-4" cx="365.36" cy="162.22" r="24.86"/><path class="cls-4" d="M377.79,173.85c-5,11.22-2.06,26.89,8,44.1L344.91,198.7l6.42-5.61-1.61-16Z" transform="translate(0 0)"/><path class="cls-3" d="M377.79,199.51c5.35,3.18,8.55,9,10.39,15a141.27,141.27,0,0,1,6.1,33.93l2,34.47,24,91.41c-20.85,17.64-32.87,13.63-60.94-.8s-31.27,4.81-31.27,4.81-2.4-.8,0-3.21,0,0-2.4-2.4,0,0,.8-2.41,0-.8-.8-1.6,3.2-8,3.2-8l-6.41-60.14-8-85c9.62-12,36.89-22.45,36.89-22.45l24.85,17.64c8,3.21,1.61-9.62,1.61-9.62Z" transform="translate(0 0)"/><path class="cls-4" d="M301.21,266.46,298,314.57l40.9,58.53c0,13.63,7.21,16.84,7.21,16.84a105.05,105.05,0,0,0,7.22-13.63c4-8.82-2.41-16-2.41-16l-28.06-59.33,12-29.67Z" transform="translate(0 0)"/><path class="cls-3" d="M314.84,215.94c-13.63,4.81-16,56.93-16,56.93,16-8.82,35.28,5.61,35.28,5.61s4-13.63,8.82-31.27a30.63,30.63,0,0,0-6.42-28.86S328.47,211.13,314.84,215.94Z" transform="translate(0 0)"/><path class="cls-5" d="M342.51,169.84c3.16-2.53,7.48,2.07,7.48,2.07l2.53-22.79s15.82,1.9,26-.63,11.7,9.18,11.7,9.18a80.64,80.64,0,0,0,.32-14.24c-.63-5.7-8.86-11.39-23.42-15.19s-22.15,12.66-22.15,12.66C334.8,146,339.34,172.37,342.51,169.84Z" transform="translate(0 0)"/><path class="cls-1" d="M765,385.54a2,2,0,0,0,2.07-1.63L822.37,83a2,2,0,0,0-1.6-2.33,2,2,0,0,0-.34,0L568.9,77.7h0a2,2,0,0,0-2,1.56L501.75,370.41a2,2,0,0,0,1.52,2.39,1.86,1.86,0,0,0,.34,0Z" transform="translate(0 0)"/><path class="cls-1" d="M546.13,404.77a1,1,0,0,0-1,.77l-2.33,10a1,1,0,0,0,.75,1.2l.16,0L675,426.05a1,1,0,0,0,1-.81l2.23-11.52a1,1,0,0,0-.79-1.17l-.13,0-131.14-7.76Z" transform="translate(0 0)"/><path class="cls-1" d="M705.57,463a1,1,0,0,0,1-.76l2.84-11.54a1,1,0,0,0-.73-1.21l-.17,0L541,437.78a1,1,0,0,0-1,.71l-3,10a1,1,0,0,0,.67,1.24l.21,0Z" transform="translate(0 0)"/><path class="cls-1" d="M696.57,500a1,1,0,0,0,1-.76l2.84-11.54a1,1,0,0,0-.73-1.21l-.17,0L532,474.78a1,1,0,0,0-1,.71l-3,10a1,1,0,0,0,.67,1.24l.21,0Z" transform="translate(0 0)"/><path class="cls-6" d="M619.38,563.51a1,1,0,0,0,1.07-.75l6-24a1,1,0,0,0-.73-1.21.41.41,0,0,0-.16,0l-102.91-8.66a1,1,0,0,0-1.06.78l-5.13,23.09a1,1,0,0,0,.76,1.19l.12,0Z" transform="translate(0 0)"/></g><g id="Layer_2" data-name="Layer 2"><g id="Layer_2-2" data-name="Layer 2"><g id="Livello_1" data-name="Livello 1"><path class="cls-7" d="M772.09,230.26a4.9,4.9,0,0,1-3.72,4.06l-2.07.22h0l-78.55,8.25c-11.61,1.2-22.54-4.72-27.07-13.87-6.47,7.91-18.44,11.24-29.51,7.48L556.2,210.75h0l-1-.34h0a5,5,0,0,1-3.12-5,4.88,4.88,0,0,1,3.62-4l2.27-.24,78.16-8.21c11.62-1.2,22.55,4.72,27.1,13.87,6.45-7.91,18.42-11.24,29.48-7.48L767,224.74l2.71.94A4.84,4.84,0,0,1,772.09,230.26Z" transform="translate(0 0)"/><g class="cls-8"><text class="cls-9" transform="matrix(1.09, 0.12, -0.11, 0.99, 598.33, 259.23)">P</text><text class="cls-10" transform="matrix(1.09, 0.12, -0.11, 0.99, 616.4, 261.27)">ick</text></g><g class="cls-8"><text class="cls-11" transform="matrix(1.09, 0.12, -0.11, 0.99, 656.58, 265.81)"> <tspan class="cls-12" x="8.95" y="0">E</tspan></text><text class="cls-10" transform="matrix(1.09, 0.12, -0.11, 0.99, 681.22, 268.6)">a</text><text class="cls-10" transform="matrix(1.09, 0.12, -0.11, 0.99, 697.96, 270.49)">t</text></g></g></g></g></svg>