<svg id="Layer_1" data-name="Layer 1" xmlns="http://www.w3.org/2000/svg" viewBox="0 0 1200 1200"><defs><style>.cls-1{fill:#ee7c54;}</style></defs><path d="M251.72,586.31v63.94h12.8A66.35,66.35,0,0,0,283.18,648a28.34,28.34,0,0,0,12.67-7.39,30.55,30.55,0,0,0,7.22-13.14A72,72,0,0,0,305.36,608a68.33,68.33,0,0,0-2-17.54,29.43,29.43,0,0,0-6.45-12.38,26.94,26.94,0,0,0-11.56-7.34,43.08,43.08,0,0,0-7.77-1.79l15-10.17c2,.44,4,.94,5.82,1.52a49.11,49.11,0,0,1,18.43,10,40.4,40.4,0,0,1,10.85,15.79,57.89,57.89,0,0,1,3.58,21A63.42,63.42,0,0,1,328,627.6,44.41,44.41,0,0,1,317,645q-7.64,7.58-20,12.09t-30.16,4.52H251.72v40.6a19.37,19.37,0,0,0,1.59,8.51,11.32,11.32,0,0,0,4.28,4.87,16.47,16.47,0,0,0,6.28,2.17,50.83,50.83,0,0,0,7.57.53h8v10.09H204.66V718.32h3.05a47.78,47.78,0,0,0,7.69-.58,15.76,15.76,0,0,0,6.28-2.41,12,12,0,0,0,4.22-5.22,22.33,22.33,0,0,0,1.53-9V609.29Z"/><path d="M349.37,718.32a50.92,50.92,0,0,0,7.57-.53,16.48,16.48,0,0,0,6.27-2.17,11.4,11.4,0,0,0,4.29-4.87,19.52,19.52,0,0,0,1.58-8.51V626.08a19.52,19.52,0,0,0-1.58-8.51,12.24,12.24,0,0,0-4.29-5,16.32,16.32,0,0,0-6.27-2.35,47.06,47.06,0,0,0-7.57-.58h-.71v-10.1h43V701.07a21.59,21.59,0,0,0,1.58,9,12.63,12.63,0,0,0,4.23,5.22,15.26,15.26,0,0,0,6.27,2.41,48.09,48.09,0,0,0,7.63.58h3.17v10.09H346.2V718.32Zm16.31-157.73a20.07,20.07,0,0,1,1.06-7,11.86,11.86,0,0,1,2.93-4.58,10.5,10.5,0,0,1,4.34-2.46,19.6,19.6,0,0,1,5.4-.71,19.09,19.09,0,0,1,5.28.71A10,10,0,0,1,389,549a12.75,12.75,0,0,1,2.94,4.58,22.88,22.88,0,0,1,0,14.08,12.66,12.66,0,0,1-2.94,4.58,10.6,10.6,0,0,1-4.28,2.52,17.69,17.69,0,0,1-5.28.77,18.16,18.16,0,0,1-5.4-.77,11.1,11.1,0,0,1-4.34-2.52,11.79,11.79,0,0,1-2.93-4.58A20.07,20.07,0,0,1,365.68,560.59Z"/><path d="M485.62,730.76a63.79,63.79,0,0,1-22.06-3.69,43.42,43.42,0,0,1-17.37-11.68q-7.28-8-11.33-20.48t-4.05-30.22q0-19.25,4.05-32.22t11.27-20.83a40.09,40.09,0,0,1,17-11.15,66.21,66.21,0,0,1,21.18-3.28,77.88,77.88,0,0,1,15,1.46,51.45,51.45,0,0,1,13.44,4.52,29.68,29.68,0,0,1,9.74,7.69,16.76,16.76,0,0,1,3.76,10.86c0,5.55-1.81,9.46-5.4,11.73s-9,3.4-16.08,3.4a58.07,58.07,0,0,0-.94-10.68,26.57,26.57,0,0,0-3.23-8.86,16.32,16.32,0,0,0-6.22-6,20.56,20.56,0,0,0-10-2.17,29.42,29.42,0,0,0-12.5,2.58,22.71,22.71,0,0,0-9.57,8.92q-4,6.33-6.1,17a141.18,141.18,0,0,0-2.11,26.75q0,25.59,8.51,38.15t27.87,12.55a39,39,0,0,0,19.48-4.69,31.38,31.38,0,0,0,12.44-12.09,11,11,0,0,1,2.94,3.76,12.48,12.48,0,0,1,1.17,5.63,15.3,15.3,0,0,1-2.58,8.21,24.42,24.42,0,0,1-7.69,7.4,45.24,45.24,0,0,1-12.73,5.34A69,69,0,0,1,485.62,730.76Z"/><path d="M617.3,651.07l32,47.54q6.21,9.61,12.38,14.67a21.87,21.87,0,0,0,14.26,5h.7v10.09h-3.4q-10.44,0-17.2-.64a33.84,33.84,0,0,1-11.67-3,29.17,29.17,0,0,1-9-7,99.42,99.42,0,0,1-9.15-12.62l-24.06-37.67-17.72,13.14v21.71a19.52,19.52,0,0,0,1.58,8.51,11.4,11.4,0,0,0,4.29,4.87,16.41,16.41,0,0,0,6.28,2.17,50.59,50.59,0,0,0,7.56.53h.71v10.09H540.19V718.32h1.88a47.78,47.78,0,0,0,7.69-.58,15.26,15.26,0,0,0,6.22-2.41,12.53,12.53,0,0,0,4.22-5.22,21.58,21.58,0,0,0,1.59-9V572.21a19.37,19.37,0,0,0-1.59-8.51,12.21,12.21,0,0,0-4.28-5,15.63,15.63,0,0,0-6.28-2.29,52.24,52.24,0,0,0-7.57-.52h-1.88V545.8h44.25v92.72q0,3.29-.12,8.39c-.08,3.4-.2,6.75-.35,10q-.24,5.64-.47,11.86l30-32.86q3.88-4.35,6.4-7.63t4-5.75a19.16,19.16,0,0,0,2.11-4.4,12.88,12.88,0,0,0,.59-3.7,3.73,3.73,0,0,0-2.88-3.93,32.54,32.54,0,0,0-8.86-.88v-10.1h53v10.1q-8.34,0-16.37,5.87a112,112,0,0,0-17.43,16.54Z"/><path class="cls-1" d="M732.91,716.44h46.36a26.88,26.88,0,0,0,9.8-1.58,19.42,19.42,0,0,0,6.75-4.28A19.84,19.84,0,0,0,800,704.3a30.88,30.88,0,0,0,2.12-7.57l1.64-10.33h12.55l-1.64,42H685.85V718.32h3a50.73,50.73,0,0,0,7.57-.53,16.47,16.47,0,0,0,6.28-2.17,11.32,11.32,0,0,0,4.28-4.87,19.37,19.37,0,0,0,1.59-8.51V584.18a22.33,22.33,0,0,0-1.53-9,12.08,12.08,0,0,0-4.22-5.22,15.76,15.76,0,0,0-6.28-2.41,47.78,47.78,0,0,0-7.69-.58h-3V556.84H807l1.17,42H795.7l-1.17-10.33a32.34,32.34,0,0,0-1.82-7.57,18.94,18.94,0,0,0-3.88-6.28,18.1,18.1,0,0,0-6.33-4.28,24,24,0,0,0-9.22-1.58H732.91v64h58V644.5h-58Z"/><path class="cls-1" d="M890.88,609.18a27.5,27.5,0,0,0-11.21,1.93,15.73,15.73,0,0,0-6.69,5.46,20.9,20.9,0,0,0-3.23,8.33,62,62,0,0,0-.82,10.45q-10,0-15.2-3.41t-5.22-11.73a16.57,16.57,0,0,1,3.4-10.56,24.92,24.92,0,0,1,9.33-7.1,53,53,0,0,1,13.79-4,103.75,103.75,0,0,1,16.79-1.29,75.64,75.64,0,0,1,19.24,2.17,32.72,32.72,0,0,1,13.73,7.1,30.08,30.08,0,0,1,8.28,12.85q2.76,7.92,2.76,19.42v62.32a35.06,35.06,0,0,0,.82,8.33,12.33,12.33,0,0,0,2.58,5.28,9.49,9.49,0,0,0,4.64,2.82,25,25,0,0,0,6.86.82h.7v10.09h-32.5l-3.76-20.65h-2q-3.76,5-7.28,9.27a42.49,42.49,0,0,1-7.75,7.28,33.53,33.53,0,0,1-9.56,4.75,42.79,42.79,0,0,1-12.85,1.7,46.59,46.59,0,0,1-14.85-2.29,31.17,31.17,0,0,1-11.85-7,32.63,32.63,0,0,1-7.81-12,47,47,0,0,1-2.81-17.07q0-19.14,13.61-28.41t41.2-10.09l19.95-.7V638.75a93.27,93.27,0,0,0-.71-11.91,24.23,24.23,0,0,0-3.05-9.39,15.72,15.72,0,0,0-6.75-6.1Q898.28,609.17,890.88,609.18Zm-29.11,84.38q0,11.27,4.76,16.84T881.25,716a35.71,35.71,0,0,0,13.21-2.34,28.29,28.29,0,0,0,10.09-6.69,29.42,29.42,0,0,0,6.4-10.56,41,41,0,0,0,2.23-13.85V663.05l-15.38.7a71.9,71.9,0,0,0-17.07,2.52,29.52,29.52,0,0,0-11.1,5.75,20.68,20.68,0,0,0-6,9.1A39,39,0,0,0,861.77,693.56Z"/><path class="cls-1" d="M1025.49,718.09a63.25,63.25,0,0,0,8-.47c2.43-.31,4.89-.71,7.39-1.18V727a26.66,26.66,0,0,1-4,1.4q-2.46.71-5.34,1.24c-1.91.35-3.93.62-6,.82s-4.11.29-6,.29a56.12,56.12,0,0,1-15.73-1.93,24.42,24.42,0,0,1-10.8-6.28,26.72,26.72,0,0,1-6.28-11.5,64.27,64.27,0,0,1-2.05-17.49V613.29H966.34v-9.63a30.08,30.08,0,0,0,9.57-1.76,22.93,22.93,0,0,0,9.21-5.87,35,35,0,0,0,6.63-10.62,87,87,0,0,0,4.4-15.43h11v29.57h31.46v13.74h-31.46v81q0,12.33,5,18.08T1025.49,718.09Z"/><path class="cls-1" d="M205.83,646.32l-30.06-21.63c-6.31-1.55-13.64-.53-21.37.54-16.84,2.34-37.79,5.24-52.65-21.52-10.21-18.41-6.23-46.33,10.15-71.16,19.45-29.46,49.55-45.35,80.78-42.79a122.33,122.33,0,0,1,28.23-15c22.43-8.27,43-7.27,59.73,2.87,10.39-1.49,28.41.17,32,16.31,3.29,15-6.73,33.92-23.61,45.51l13.36,22.18-4.1,2c-.63.31-62.71,31.34-90.09,78.62ZM168.4,615.48a38.49,38.49,0,0,1,10.33,1.28l.72.2,23.82,17.14c25.52-40.69,73-68.23,87.19-75.87l-13-21.56,3.65-2.17c15.77-9.32,26-26.33,23.25-38.72-2.93-13.33-23-9.73-23.83-9.58l-1.65.31-1.42-.91c-35.57-23-80.53,11.48-81,11.83l-1.34,1-1.68-.17c-28.65-2.95-56.51,11.58-74.54,38.9-14.44,21.88-18.39,47-9.81,62.42,12,21.71,26.91,19.65,44.12,17.26A112.58,112.58,0,0,1,168.4,615.48Z"/><path class="cls-1" d="M193.9,494.11s-16.11,7.35-23.5,29.42"/><path class="cls-1" d="M170.4,527.74a4.22,4.22,0,0,1-4-5.55c7.89-23.53,25-31.58,25.75-31.91a4.21,4.21,0,0,1,3.51,7.65c-.6.28-14.6,7-21.27,26.93A4.2,4.2,0,0,1,170.4,527.74Z"/><path class="cls-1" d="M279.76,482.07s-7.26,1.47-13.21,10.33"/><path class="cls-1" d="M266.54,496.62a4.13,4.13,0,0,1-2.34-.72,4.22,4.22,0,0,1-1.15-5.85c6.84-10.17,15.5-12,15.87-12.11a4.21,4.21,0,0,1,1.72,8.24c-.33.08-5.83,1.48-10.6,8.57A4.21,4.21,0,0,1,266.54,496.62Z"/><path class="cls-1" d="M192.92,589a31.38,31.38,0,0,1-8.27-1.14c-11-3-20.19-11.6-24.52-22.92a4.21,4.21,0,1,1,7.86-3c3.38,8.83,10.44,15.49,18.89,17.81,6.53,1.79,13,.65,17.76-3.12a4.21,4.21,0,1,1,5.23,6.6A27.08,27.08,0,0,1,192.92,589Z"/><path class="cls-1" d="M262.07,548.42a4.21,4.21,0,0,1-2.68-7.46c1.16-1,11-9.73,4-21.5a4.21,4.21,0,1,1,7.22-4.34c8.78,14.62,0,27.55-5.83,32.35A4.2,4.2,0,0,1,262.07,548.42Z"/><path class="cls-1" d="M177.59,625a4.17,4.17,0,0,1-1.42-.25,4.22,4.22,0,0,1-2.55-5.37c.41-1.15,10.48-28.48,52.39-61.89a4.21,4.21,0,0,1,5.25,6.58c-39.81,31.75-49.61,57.88-49.7,58.14A4.22,4.22,0,0,1,177.59,625Z"/><path class="cls-1" d="M283.27,538.13a130.11,130.11,0,0,0-31,10.31"/><path class="cls-1" d="M252.28,552.65a4.22,4.22,0,0,1-1.81-8A134.4,134.4,0,0,1,282.58,534a4.21,4.21,0,0,1,1.38,8.31,128.17,128.17,0,0,0-29.87,10A4.19,4.19,0,0,1,252.28,552.65Z"/><path class="cls-1" d="M1067.11,712.37a18.37,18.37,0,1,1,18.35,18.39A18.35,18.35,0,0,1,1067.11,712.37Z"/></svg>